<svg width="203" height="224" viewBox="0 0 203 224" fill="none" xmlns="http://www.w3.org/2000/svg">
<path d="M104.237 31.1765C104.237 33.8459 103.156 38.4992 102.277 40.3299C87.3978 36.8621 97.3819 35.7492 75.4863 35.7492C76.7041 36.8137 76.2766 36.5395 78.067 37.0879C85.8172 39.4589 93.1722 41.8703 99.6804 46.8381C118.681 61.3626 112.826 83.6292 100.511 99.9764C98.9303 102.065 97.6884 104.025 95.9142 105.839L85.7849 116.622C84.4704 117.84 84.18 117.84 82.8736 118.945C81.5509 120.057 81.4542 120.42 80.059 121.356C79.3332 112.606 74.5024 103.735 67.6474 99.1376C70.9943 92.1617 71.6475 69.516 65.6877 65.153C66.6151 76.2984 67.3006 84.1051 61.7683 94.5569C53.8568 92.7181 39.7275 79.113 36.0661 72.5483L32.5741 64.274C31.6789 61.1449 33.4612 62.9917 31.0498 61.2255C31.0498 74.4436 35.8725 81.4598 43.2759 88.8632C47.0018 92.5891 53.752 96.2827 56.5343 100.436C48.1712 112.92 25.9207 109.888 13.4043 106.968C14.5737 108.565 16.7753 108.888 19.0899 109.783C21.2996 110.646 23.2029 111.081 25.59 111.775C36.5742 114.993 49.768 115.049 59.1714 108.291C61.0505 106.936 61.8408 105.614 63.728 104.347C70.583 117.307 70.9217 114.428 70.9217 131.792C70.9217 135.679 60.4618 152.074 60.4618 170.349C60.4618 187.035 70.6878 204.132 84.7204 209.479C99.0352 214.93 117.463 213.14 131.221 207.132C133.157 206.285 132.883 206.148 135.02 205.704C150.552 202.446 184.198 214.076 183.102 195.245C182.231 180.333 155.891 191.269 148.028 191.269C149.133 188.962 148.698 181.518 149.681 179.793C151.488 176.615 161.278 189.535 164.875 174.131C165.908 169.704 165.738 165.373 166.682 160.905C168.908 150.397 172.206 151.123 172.206 137.026C170.271 137.542 171.15 137.292 169.593 138.332C169.593 133.896 169.763 133.009 166.98 131.146C164.577 131.784 163.9 132.993 163.109 135.122C162.48 136.824 161.795 139.445 161.746 141.606C160.625 139.993 160.625 138.913 158.48 138.34L157.827 146.832C157.827 151.348 159.787 152.34 159.787 155.986C159.787 163.115 150.488 148.655 149.859 147.614C148.351 145.098 147.198 143.171 145.512 140.848C142.923 137.276 140.173 137.292 140.173 132.461C140.173 128.921 141.391 127.356 142.786 125.267C150.915 125.267 149.972 124.122 149.972 117.428C152.544 117.372 151.504 117.606 153.238 116.775C152.19 114.791 150.423 113.743 150.02 111.493C149.431 108.194 150.391 106.057 149.278 103.089C146.27 95.1053 139.27 95.7747 132.399 96.6376C127.939 97.2021 120.568 92.0891 120.568 102.396C120.568 105.267 121.963 105.323 122.165 107.622C122.439 110.719 122.81 116.211 125.31 119.211C127.963 122.396 131.899 122.558 126.826 135.445C120.173 152.332 126.447 153.074 126.447 161.204V180.156C126.447 180.18 119.124 194.164 118.608 200.414C103.769 199.18 91.9221 191.906 85.4865 179.946C76.1799 162.631 83.3574 141.808 96.2206 129.017L110.769 112.856C117.673 103.888 123.834 92.2746 123.834 79.5162C140.181 70.8628 143.496 61.1852 147.512 44.3784L147.464 42.1525C147.351 42.2574 143.931 49.1769 143.157 50.4833C139.923 55.9351 136.536 61.1207 131.826 65.2982C129.979 66.9434 126.334 69.7822 123.826 70.3628C123.673 63.3385 116.318 52.9915 112.56 48.9511C106.624 42.5638 108.858 47.5639 108.116 37.0556C107.971 35.0637 107.293 31.8862 106.584 30.0877L103.568 24.6118C103.568 28.0796 104.221 28.378 104.221 31.1442L104.237 31.1765Z" fill="url(#paint0_linear_938_812)"/>
<path d="M195.077 192.599C195.077 201.14 188.077 205.995 181.641 208.576C158.455 217.882 128.769 201.172 105.543 221.358C116.446 220.447 122.995 213.987 148.286 219.794C165.681 223.794 157.802 223.326 176.125 223.326C198.795 223.326 208.682 202.85 198.239 186.833C196.351 183.938 192.771 180.494 189.198 179.535C191.343 182.736 195.085 187.43 195.085 192.608L195.077 192.599Z" fill="url(#paint1_linear_938_812)"/>
<path d="M89.2032 16.1521C89.2032 14.4747 90.2355 16.0473 89.5903 16.1521C89.5822 16.1521 89.2032 17.9748 89.2032 16.1521ZM93.7759 27.9105C92.6226 25.733 90.0984 19.7006 89.8564 16.8054C90.55 17.6118 91.2194 18.3619 91.929 19.3135C92.6145 20.2248 93.1629 21.1845 93.7759 22.0474C95.034 23.8297 96.5501 25.4023 98.3566 26.612C98.3566 17.8941 98.2114 14.8618 94.5501 9.50683C92.0984 5.9261 86.7112 1.56311 82.0175 0.466309C82.0175 9.16811 81.2595 16.6925 88.0338 23.8539C89.308 25.2007 91.9452 27.4266 93.7759 27.9105Z" fill="url(#paint2_linear_938_812)"/>
<path d="M41.502 29.87C43.1875 32.3862 49.1312 36.1121 52.5022 37.1686C58.6475 39.088 62.3895 37.7815 68.2929 36.4105C66.8412 34.4266 65.6638 35.1927 62.9137 34.596L57.1797 32.483L70.2526 31.8298C68.1235 28.6442 60.7443 25.2974 55.2281 25.2974C49.2602 25.2974 45.4053 27.8055 41.502 29.87V29.87Z" fill="url(#paint3_linear_938_812)"/>
<path d="M40.1953 132.477C40.1953 138.042 42.0421 145.244 45.4212 147.51C46.26 145.187 47.8568 144.703 49.8165 141.445C55.5344 131.905 51.2923 126.284 49.9939 120.711H48.6874C47.5826 125.445 46.0745 126.888 46.0745 133.131H45.4212C45.4212 128.703 44.768 125.824 44.768 120.711L43.2196 123.082C41.8647 125.622 40.1953 129.51 40.1953 132.469V132.477Z" fill="url(#paint4_linear_938_812)"/>
<path d="M123.189 27.2574C123.261 27.0478 125.705 26.1848 123.955 27.1929C123.947 27.1929 122.519 29.0962 123.189 27.2574ZM116.656 35.0963C117.132 34.5479 117.576 34.0398 118.148 33.314C119.931 31.0559 120.568 29.6607 123.197 27.9026C122.366 31.4672 120.285 32.7495 119.931 37.056C123.794 36.1528 128.358 32.1688 130.503 29.3381C133.342 25.588 133.649 20.6928 133.649 14.1846C130.165 14.4749 123.552 19.0798 121.761 21.2492C119.043 24.5396 116.656 29.2333 116.656 35.0963Z" fill="url(#paint5_linear_938_812)"/>
<path d="M0.984375 74.9681C4.1296 79.6698 11.0249 83.4602 16.6702 83.4602C17.6864 83.4602 20.8961 82.7344 22.1784 82.428C24.8478 81.7908 24.9849 81.3473 27.1301 80.8473C26.2591 80.0892 26.114 79.944 24.7349 79.323C22.2994 78.2262 18.0331 76.9278 15.3718 76.9278L26.4769 76.2746C23.4284 72.1132 16.5492 71.6938 11.4523 71.6938C7.01677 71.6938 4.428 74.1616 0.99244 74.96L0.984375 74.9681Z" fill="url(#paint6_linear_938_812)"/>
<path d="M144.754 65.8146C149.488 65.8146 151.295 66.4679 155.859 66.4679V67.1211C152.198 67.1211 147.787 67.9437 145.4 69.0808C148.714 73.6051 159.327 74.3229 164.997 71.0325C166.779 70.0002 168.198 68.3147 170.231 67.7743V66.4679C165.263 65.3065 160.795 59.6209 149.867 63.0968L144.738 65.8146H144.754Z" fill="url(#paint7_linear_938_812)"/>
<path d="M59.1477 53.4032C59.1477 51.7257 60.18 53.2983 59.5349 53.4032C59.5268 53.4032 59.1477 55.2258 59.1477 53.4032ZM63.0672 62.5485C61.8252 60.2098 60.0671 57.2339 59.801 54.0564C62.5833 56.0968 63.1962 60.234 66.9866 61.2501C66.9866 48.3466 62.3817 45.1611 53.2686 40.3384C53.2686 44.5804 52.0347 47.4676 54.6396 53.9919C56.0106 57.4275 59.2123 61.5243 63.0672 62.5566V62.5485Z" fill="url(#paint8_linear_938_812)"/>
<path d="M8.17773 131.171C23.1458 131.171 24.2829 125.3 28.4362 117.445C23.5894 117.848 20.8635 121.904 17.9844 122.671L25.3152 114.969C13.823 115.501 10.7584 125.783 8.17773 131.163V131.171Z" fill="url(#paint9_linear_938_812)"/>
<path d="M43.4609 72.3551C43.4609 75.8229 43.8642 79.8875 46.0739 81.5004C46.2352 79.5327 46.8562 74.21 48.0336 72.3551C48.0336 77.3794 48.4207 78.8794 49.3401 82.815C54.2273 79.2343 55.5902 68.5566 50.5821 61.3145C49.703 60.0484 49.7837 59.75 48.0336 59.2822C47.0981 62.7904 43.4609 65.3065 43.4609 72.3551Z" fill="url(#paint10_linear_938_812)"/>
<path d="M26.4686 48.1688C26.4686 46.4994 27.5008 48.0639 26.8557 48.1688C26.8476 48.1688 26.4686 49.9914 26.4686 48.1688ZM28.4283 57.3141C30.3799 55.5802 27.1218 55.5641 27.1218 48.822C27.2266 48.943 27.3637 48.9833 27.4041 49.193L30.8719 54.8786C32.3397 56.7819 30.9767 55.9351 33.001 56.669C33.001 50.7737 33.5977 47.451 31.2832 43.3541C30.267 41.5638 24.6863 35.8137 23.1459 36.0314C20.6942 36.3782 21.533 45.2332 22.162 47.9026C23.3153 52.8463 26.2186 54.0076 28.4283 57.3141V57.3141Z" fill="url(#paint11_linear_938_812)"/>
<path d="M156.52 36.4107L156.714 36.6043C156.698 36.5882 156.456 36.4752 156.52 36.4107ZM147.375 39.6769L151.923 38.3463C153.488 37.7253 154.391 37.2414 156.52 37.064C154.754 38.5963 151.214 40.1286 149.335 42.9431C160.343 45.5077 165.222 38.2092 168.94 31.1767C165.4 30.8864 161.319 29.2815 154.569 33.1445C149.375 36.1123 149.52 38.0963 147.375 39.6769Z" fill="url(#paint12_linear_938_812)"/>
<path d="M29.0821 98.4925L29.2756 98.686C29.2675 98.6779 29.0175 98.557 29.0821 98.4925ZM35.6145 106.985C32.5096 101.113 31.7434 102.146 29.7272 99.1457C32.9692 100.009 34.7999 102.976 37.5742 103.718C33.8483 96.686 30.5498 91.581 19.2754 90.6455C19.2754 99.1699 27.082 106.985 35.6145 106.985V106.985Z" fill="url(#paint13_linear_938_812)"/>
<path d="M83.3252 93.92C84.0188 93.2264 85.8011 94.9523 84.051 94.2587C84.0349 94.2506 82.2284 95.0168 83.3252 93.92ZM75.4863 96.533C76.7444 95.9362 81.6074 94.9765 83.3252 94.5732C81.4945 97.0733 79.0832 96.912 77.446 99.154C87.6801 99.154 91.0028 94.799 95.0916 88.6941C87.1801 84.8956 77.1154 90.436 75.4863 96.533V96.533Z" fill="url(#paint14_linear_938_812)"/>
<path d="M80.0582 69.0805C80.1066 68.5482 81.284 66.0724 80.9131 68.4676C80.9131 68.4837 80.784 68.6934 80.7356 68.7418C80.6873 68.7902 79.8888 71.2418 80.0582 69.0805V69.0805ZM74.8323 73.6532C77.4291 72.9596 77.8162 71.2338 80.0582 69.7338C79.4775 72.2257 78.6791 72.4677 78.0985 74.9597C85.5664 71.008 86.5906 66.7176 86.5906 58.6206C83.4857 60.1126 80.5098 60.7578 78.3404 63.4433C76.2839 65.9756 74.8242 69.3386 74.8242 73.6532H74.8323Z" fill="url(#paint15_linear_938_812)"/>
<path d="M104.237 31.1767C104.237 33.8461 103.156 38.4995 102.277 40.3301C87.3978 36.8623 97.3819 35.7575 75.4863 35.7575C76.7041 36.8139 76.2766 36.5478 78.067 37.0962C85.8172 39.4672 93.1722 41.8786 99.6804 46.8464C118.681 61.3709 112.826 83.6375 100.511 99.9847C98.9304 102.073 97.6884 104.033 95.9142 105.848L85.7849 116.63C84.4704 117.848 84.18 117.848 82.8736 118.953C81.5509 120.066 81.4542 120.429 80.059 121.364C79.3332 112.614 74.5024 103.743 67.6474 99.1459C70.9943 92.17 71.6475 69.5243 65.6877 65.1613C66.6151 76.3067 67.3006 84.1134 61.7683 94.5652C53.8568 92.7264 39.7275 79.1213 36.0661 72.5566L32.5741 64.2823C31.6789 61.1532 33.4612 63 31.0498 61.2338C31.0498 74.4518 35.8725 81.4681 43.2759 88.8715C47.0018 92.5974 53.7519 96.291 56.5343 100.444C48.1712 112.928 25.9207 109.896 13.4043 106.977C14.5737 108.574 16.7753 108.896 19.0899 109.791C21.2996 110.654 23.2029 111.09 25.59 111.783C36.5742 115.001 49.768 115.058 59.1714 108.299C61.0505 106.944 61.8408 105.622 63.728 104.356C70.583 117.316 70.9217 114.437 70.9217 131.808C70.9217 135.695 60.4618 152.091 60.4618 170.365C60.4618 173.736 60.8811 177.123 61.6634 180.422C68.0184 175.583 74.6153 170.825 81.4219 166.139C80.2606 152.494 86.6801 138.542 96.2448 129.026L110.794 112.864C117.697 103.896 123.858 92.2829 123.858 79.5245C140.205 70.8711 143.52 61.1935 147.536 44.3867L147.488 42.1608C147.375 42.2657 143.956 49.1852 143.181 50.4916C139.947 55.9434 136.56 61.129 131.85 65.3065C129.996 66.9517 126.358 69.7905 123.85 70.3711C123.697 63.3468 116.342 52.9998 112.584 48.9594C106.648 42.5721 108.882 47.5722 108.14 37.0639C107.995 35.072 107.318 31.8945 106.608 30.096L103.592 24.6201C103.592 28.0879 104.245 28.3863 104.245 31.1525L104.237 31.1767ZM140.246 131.082C140.528 128.477 141.593 127.066 142.794 125.276C150.923 125.276 149.98 124.13 149.98 117.437C152.552 117.38 151.512 117.614 153.246 116.783C152.198 114.8 150.431 113.751 150.028 111.501C149.44 108.203 150.399 106.065 149.286 103.098C146.278 95.1136 139.278 95.783 132.407 96.6459C127.947 97.2104 120.576 92.0974 120.576 102.404C120.576 105.275 121.971 105.332 122.173 107.63C122.447 110.727 122.818 116.219 125.318 119.219C127.971 122.405 131.907 122.566 126.834 135.453C126.358 136.663 125.947 137.792 125.592 138.848C130.487 136.147 135.375 133.558 140.246 131.074V131.082Z" fill="url(#paint16_linear_938_812)"/>
<defs>
<linearGradient id="paint0_linear_938_812" x1="164.77" y1="177.914" x2="31.7515" y2="59.4997" gradientUnits="userSpaceOnUse">
<stop stop-color="#33BB95"/>
<stop offset="1" stop-color="#4BC1B5"/>
</linearGradient>
<linearGradient id="paint1_linear_938_812" x1="165.778" y1="227.197" x2="142.157" y2="175.656" gradientUnits="userSpaceOnUse">
<stop stop-color="#33BB95"/>
<stop offset="1" stop-color="#4BC1B5"/>
</linearGradient>
<linearGradient id="paint2_linear_938_812" x1="98.6953" y1="19.4909" x2="81.6466" y2="8.89391" gradientUnits="userSpaceOnUse">
<stop stop-color="#7CA525"/>
<stop offset="1" stop-color="#4B6906"/>
</linearGradient>
<linearGradient id="paint3_linear_938_812" x1="59.091" y1="39.2331" x2="52.6635" y2="24.2006" gradientUnits="userSpaceOnUse">
<stop stop-color="#7CA525"/>
<stop offset="1" stop-color="#4B6906"/>
</linearGradient>
<linearGradient id="paint4_linear_938_812" x1="53.7763" y1="137.679" x2="39.1469" y2="130.542" gradientUnits="userSpaceOnUse">
<stop stop-color="#7CA525"/>
<stop offset="1" stop-color="#4B6906"/>
</linearGradient>
<linearGradient id="paint5_linear_938_812" x1="132.818" y1="31.572" x2="117.479" y2="19.6847" gradientUnits="userSpaceOnUse">
<stop stop-color="#7CA525"/>
<stop offset="1" stop-color="#4B6906"/>
</linearGradient>
<linearGradient id="paint6_linear_938_812" x1="17.017" y1="84.4522" x2="11.0894" y2="70.71" gradientUnits="userSpaceOnUse">
<stop stop-color="#7CA525"/>
<stop offset="1" stop-color="#4B6906"/>
</linearGradient>
<linearGradient id="paint7_linear_938_812" x1="160.222" y1="74.0729" x2="154.771" y2="60.9919" gradientUnits="userSpaceOnUse">
<stop stop-color="#7CA525"/>
<stop offset="1" stop-color="#4B6906"/>
</linearGradient>
<linearGradient id="paint8_linear_938_812" x1="67.0511" y1="56.0887" x2="52.9218" y2="46.7901" gradientUnits="userSpaceOnUse">
<stop stop-color="#7CA525"/>
<stop offset="1" stop-color="#4B6906"/>
</linearGradient>
<linearGradient id="paint9_linear_938_812" x1="23.7184" y1="130.138" x2="12.8875" y2="116.001" gradientUnits="userSpaceOnUse">
<stop stop-color="#7CA525"/>
<stop offset="1" stop-color="#4B6906"/>
</linearGradient>
<linearGradient id="paint10_linear_938_812" x1="54.7434" y1="73.8471" x2="42.4529" y2="68.2421" gradientUnits="userSpaceOnUse">
<stop stop-color="#7CA525"/>
<stop offset="1" stop-color="#4B6906"/>
</linearGradient>
<linearGradient id="paint11_linear_938_812" x1="33.6139" y1="50.2656" x2="20.9604" y2="43.088" gradientUnits="userSpaceOnUse">
<stop stop-color="#7CA525"/>
<stop offset="1" stop-color="#4B6906"/>
</linearGradient>
<linearGradient id="paint12_linear_938_812" x1="161.996" y1="43.7496" x2="154.311" y2="30.3219" gradientUnits="userSpaceOnUse">
<stop stop-color="#7CA525"/>
<stop offset="1" stop-color="#4B6906"/>
</linearGradient>
<linearGradient id="paint13_linear_938_812" x1="34.0176" y1="105.347" x2="22.84" y2="92.2907" gradientUnits="userSpaceOnUse">
<stop stop-color="#7CA525"/>
<stop offset="1" stop-color="#4B6906"/>
</linearGradient>
<linearGradient id="paint14_linear_938_812" x1="88.7769" y1="99.404" x2="81.7929" y2="87.186" gradientUnits="userSpaceOnUse">
<stop stop-color="#7CA525"/>
<stop offset="1" stop-color="#4B6906"/>
</linearGradient>
<linearGradient id="paint15_linear_938_812" x1="86.147" y1="70.8789" x2="75.2758" y2="62.7175" gradientUnits="userSpaceOnUse">
<stop stop-color="#7CA525"/>
<stop offset="1" stop-color="#4B6906"/>
</linearGradient>
<linearGradient id="paint16_linear_938_812" x1="57" y1="29" x2="97.5" y2="180" gradientUnits="userSpaceOnUse">
<stop offset="0.70384" stop-color="white" stop-opacity="0"/>
<stop offset="0.945752" stop-color="white" stop-opacity="0.5"/>
</linearGradient>
</defs>
</svg>
